<svg width="200" height="74" viewBox="0 0 200 74" fill="none" xmlns="http://www.w3.org/2000/svg">
<path d="M36.4881 59.0954L14.5763 49.9573L36.4304 40.0516L58.3772 49.8244L36.4881 59.0954Z" fill="#F28B0C"/>
<path d="M58.1196 49.9787L36.1893 40.2057L36.1066 12.9278L58.0369 22.7008L58.1196 49.9787Z" fill="#F25244"/>
<path d="M36.4474 40.191L14.5767 50.0968L14.4976 24.0085L36.3646 12.9131L36.4474 40.191Z" fill="#F2B807"/>
<path fill-rule="evenodd" clip-rule="evenodd" d="M58.1327 44.8744C67.2834 42.9537 73.2285 39.8627 73.218 36.3935C73.2006 30.6413 56.816 26.0279 36.6222 26.0891C16.4282 26.1504 0.0720429 30.8631 0.0894915 36.6153C0.0997707 40.0041 5.79043 42.9976 14.5939 44.873L14.5951 41.4394C10.404 40.2806 7.88384 38.7861 7.87887 37.1483C7.86751 33.4053 20.9971 30.3312 37.2046 30.282C53.4123 30.2329 66.5603 33.2273 66.5717 36.9703C66.5773 38.8249 63.3565 40.5153 58.1338 41.7549L58.1327 44.8744Z" fill="white"/>
<path fill-rule="evenodd" clip-rule="evenodd" d="M28.4978 55.5889C30.7489 65.9978 34.7557 72.9309 39.3036 72.9171C46.2705 72.8959 51.8688 56.5804 51.8079 36.4751C51.7468 16.37 46.0496 0.0886591 39.0827 0.109792C34.575 0.123466 30.6402 6.95858 28.4406 17.228L32.8892 14.9889C34.4085 9.6217 36.5102 6.30392 38.8411 6.29685C43.5354 6.28261 47.3818 19.703 47.4321 36.2721C47.4823 52.8413 43.7175 66.2848 39.023 66.2991C36.6712 66.3062 34.5323 62.9415 32.9769 57.4985L28.4978 55.5889Z" fill="white"/>
<path d="M86.2213 49.0106V30.8727C86.2213 28.62 86.8492 26.8641 88.1054 25.6052C89.3948 24.3133 91.1638 23.6672 93.4118 23.6672H98.6186V27.593H94.2545C93.1307 27.593 92.2712 27.9242 91.6761 28.5869C91.0811 29.2162 90.7836 30.0777 90.7836 31.1709V49.0106H86.2213Z" fill="white"/>
<path d="M115.68 49.0104C112.868 49.0104 110.389 48.4969 108.241 47.4699C106.125 46.4099 104.455 44.9356 103.232 43.0473C102.042 41.1259 101.447 38.8897 101.447 36.3388C101.447 33.821 101.959 31.5683 102.984 29.5807C104.009 27.5598 105.43 25.9696 107.248 24.8101C109.067 23.6506 111.183 23.0709 113.596 23.0709C116.208 23.0709 118.374 23.634 120.092 24.7604C121.844 25.8867 123.15 27.4107 124.01 29.3321C124.87 31.2204 125.3 33.3406 125.3 35.6927C125.3 36.4879 125.249 37.2166 125.15 37.8792H106.307C106.472 39.4363 106.984 40.7615 107.843 41.8547C108.704 42.9147 109.794 43.7264 111.117 44.2895C112.472 44.8197 113.959 45.0846 115.579 45.0846H122.175V49.0104H115.68ZM106.257 34.6493H120.687C120.687 33.556 120.473 32.413 120.043 31.2204C119.613 30.0279 118.886 29.0174 117.861 28.1891C116.836 27.3279 115.414 26.8972 113.596 26.8972C112.075 26.8972 110.769 27.2947 109.679 28.0899C108.621 28.8518 107.794 29.8291 107.199 31.0217C106.637 32.1812 106.323 33.3904 106.257 34.6493Z" fill="white"/>
<path d="M143.365 49.0106C140.754 49.0106 138.423 48.4473 136.374 47.321C134.324 46.1946 132.704 44.6872 131.514 42.799C130.324 40.8775 129.729 38.7241 129.729 36.3388C129.729 33.9537 130.324 31.8168 131.514 29.9286C132.704 28.0071 134.324 26.4832 136.374 25.3568C138.423 24.2305 140.754 23.6672 143.365 23.6672H146.34V27.593H143.216C141.53 27.593 140.009 27.9906 138.655 28.7856C137.332 29.5475 136.275 30.5911 135.481 31.9162C134.72 33.2413 134.34 34.7157 134.34 36.3388C134.34 37.9621 134.72 39.4364 135.481 40.7616C136.275 42.0867 137.332 43.1468 138.655 43.9418C140.009 44.7038 141.53 45.0848 143.216 45.0848H146.34V49.0106H143.365Z" fill="white"/>
<path d="M162.066 49.6068C159.587 49.6068 157.454 49.0269 155.669 47.8674C153.916 46.6748 152.562 45.0846 151.602 43.097C150.644 41.0761 150.165 38.8234 150.165 36.3388C150.165 33.8541 150.693 31.618 151.752 29.6303C152.809 27.6094 154.33 26.0193 156.314 24.8598C158.297 23.6672 160.677 23.0709 163.455 23.0709C166.099 23.0709 168.381 23.6506 170.297 24.8101C172.248 25.9696 173.736 27.5431 174.761 29.5309C175.819 31.5187 176.348 33.7382 176.348 36.1897V49.0104H171.736V43.8424H171.637C171.141 44.7699 170.463 45.681 169.603 46.5755C168.744 47.4698 167.686 48.1987 166.43 48.762C165.207 49.325 163.753 49.6068 162.066 49.6068ZM163.256 45.681C164.909 45.681 166.364 45.2669 167.62 44.4386C168.909 43.6104 169.901 42.4841 170.595 41.0596C171.323 39.6351 171.687 38.0283 171.687 36.2394C171.687 34.4836 171.339 32.9099 170.645 31.5187C169.984 30.1272 169.025 29.0339 167.768 28.2389C166.513 27.4107 165.042 26.9965 163.355 26.9965C161.57 26.9965 160.033 27.4107 158.743 28.2389C157.487 29.0672 156.513 30.1935 155.818 31.618C155.157 33.0426 154.826 34.6327 154.826 36.3885C154.826 38.1112 155.157 39.6847 155.818 41.1093C156.479 42.5006 157.437 43.6104 158.694 44.4386C159.95 45.2669 161.471 45.681 163.256 45.681Z" fill="white"/>
<path d="M183.612 49.0105V12.7349H188.174V49.0105H183.612Z" fill="white"/>
<path d="M195.429 49.0105V12.7349H199.992V49.0105H195.429Z" fill="white"/>
</svg>
